import React from 'react';

<svg width="228" height="228" viewBox="0 0 228 228" fill="none" xmlns="http://www.w3.org/2000/svg">
<path d="M6 222C6 219.791 7.79086 218 10 218H221C223.209 218 225 219.791 225 222C225 224.209 223.209 226 221 226H6V222Z" fill="#835151"/>
<path d="M2.18168 227.466L23.6484 180.684L48.2116 204.43L2.18168 227.466Z" fill="#FF8E8E"/>
<rect x="192.529" y="55.0464" width="199.031" height="34.1582" transform="rotate(134.027 192.529 55.0464)" fill="#FF8E8E"/>
<rect x="192.519" y="55.0537" width="199.02" height="17.0783" transform="rotate(134.027 192.519 55.0537)" fill="#CD6F6F"/>
<path d="M212.492 64.6659C214.874 66.969 214.939 70.7674 212.636 73.15L172.111 115.075C170.702 116.532 168.379 116.571 166.921 115.163L166.86 115.104C165.403 113.695 165.364 111.372 166.772 109.914L211.467 63.6757L212.492 64.6659Z" fill="#946666"/>
<path d="M218.686 19.3693C221.069 21.6725 221.133 25.4709 218.83 27.8534L197.69 49.7218L173.339 26.1821L194.479 4.31373C196.782 1.93125 200.581 1.86694 202.963 4.17008L218.686 19.3693Z" fill="#FF8E8E"/>
<path d="M218.686 19.3693C221.069 21.6725 221.133 25.4709 218.83 27.8534L197.69 49.7218L185.518 37.9559L210.829 11.7736L218.686 19.3693Z" fill="#CD6F6F"/>
<path d="M212.783 64.3073C215.165 66.6105 215.23 70.4089 212.926 72.7914L211.937 73.8152L192.363 54.8928L197.522 49.5551L212.783 64.3073Z" fill="#946666"/>
<rect x="197.684" y="49.7168" width="7.41417" height="0.227209" transform="rotate(134.03 197.684 49.7168)" fill="white"/>
</svg>
