<svg width="163" height="103" viewBox="0 0 163 103" fill="none" xmlns="http://www.w3.org/2000/svg">
<rect x="60.543" width="100.457" height="100.457" rx="10" fill="#FFF0F0"/>
<path d="M125.595 45.1714L73.6155 98.9461L65.1903 90.8022C61.2193 86.9638 61.1118 80.6331 64.9502 76.6621L109.979 30.0775L125.595 45.1714Z" fill="#FF8E8E"/>
<rect x="125.588" y="45.1758" width="76.408" height="10.8584" transform="rotate(134.027 125.588 45.1758)" fill="#CD6F6F"/>
<path d="M137.635 50.6578C139.51 52.4698 139.56 55.4584 137.748 57.333L112.631 83.318C111.725 84.2553 110.231 84.2807 109.293 83.3747C108.356 82.4687 108.331 80.9744 109.237 80.0371L137.635 50.6578Z" fill="#946666"/>
<path d="M140.654 20.9694C143.036 23.2726 143.101 27.071 140.798 29.4535L128.875 41.7864L113.393 26.8198L125.315 14.4869C127.619 12.1044 131.417 12.0401 133.8 14.3433L140.654 20.9694Z" fill="#FF8E8E"/>
<path d="M140.654 20.9694C143.036 23.2726 143.101 27.071 140.798 29.4535L128.875 41.7864L121.137 34.3056L137.229 17.6589L140.654 20.9694Z" fill="#CD6F6F"/>
<path d="M137.821 50.4303C139.695 52.2421 139.746 55.2303 137.934 57.1046L125.489 45.0737L128.77 41.68L137.821 50.4303Z" fill="#946666"/>
<rect x="128.872" y="41.7832" width="4.71394" height="0.14446" transform="rotate(134.03 128.872 41.7832)" fill="white"/>
<rect x="65.4062" y="5" width="90.4568" height="90.4568" rx="5" stroke="#FF8E8E" stroke-width="10"/>
<rect x="2" y="46" width="30" height="4" fill="#B5B5B5"/>
<rect x="2" y="35" width="30" height="4" fill="#B5B5B5"/>
<rect x="2" y="57" width="30" height="4" fill="#B5B5B5"/>
</svg>
