<svg width="20" height="20" viewBox="0 0 20 20" fill="none" xmlns="http://www.w3.org/2000/svg">
<path fill-rule="evenodd" clip-rule="evenodd" d="M18.64 10.2046C18.64 9.56637 18.5827 8.95274 18.4764 8.36365H10V11.845H14.8436C14.635 12.97 14.0009 13.9232 13.0477 14.5614V16.8196H15.9564C17.6582 15.2527 18.64 12.9455 18.64 10.2046Z" fill="#4285F4"/>
<path fill-rule="evenodd" clip-rule="evenodd" d="M10 19C12.43 19 14.4673 18.1941 15.9564 16.8195L13.0477 14.5614C12.2418 15.1014 11.2109 15.4204 10 15.4204C7.65591 15.4204 5.67182 13.8373 4.96409 11.71H1.95728V14.0418C3.43818 16.9832 6.48182 19 10 19Z" fill="#34A853"/>
<path fill-rule="evenodd" clip-rule="evenodd" d="M4.96409 11.71C4.78409 11.17 4.68182 10.5932 4.68182 10C4.68182 9.40683 4.78409 8.83001 4.96409 8.29001V5.95819H1.95727C1.34773 7.17319 1 8.54774 1 10C1 11.4523 1.34773 12.8268 1.95727 14.0418L4.96409 11.71Z" fill="#FBBC05"/>
<path fill-rule="evenodd" clip-rule="evenodd" d="M10 4.57955C11.3214 4.57955 12.5077 5.03364 13.4405 5.92545L16.0218 3.34409C14.4632 1.89182 12.4259 1 10 1C6.48182 1 3.43818 3.01682 1.95728 5.95818L4.96409 8.29C5.67182 6.16273 7.65591 4.57955 10 4.57955Z" fill="#EA4335"/>
</svg>
