<svg width="158" height="157" viewBox="0 0 158 157" fill="none" xmlns="http://www.w3.org/2000/svg">
<rect width="158" height="158" rx="10" fill="#FF8E8E"/>
<path d="M102.313 71.0466L20.5597 155.624L3.18979 138.834C-0.781184 134.996 -0.888666 128.665 2.94972 124.694L77.7535 47.3067L102.313 71.0466Z" fill="white"/>
<rect x="102.304" y="71.054" width="120.176" height="17.0783" transform="rotate(134.027 102.304 71.054)" fill="#FFCACA"/>
<path d="M122.276 80.6659C124.658 82.969 124.723 86.7674 122.42 89.15L81.895 131.075C80.4863 132.532 78.163 132.571 76.7056 131.163L76.6446 131.104C75.1873 129.695 75.1478 127.372 76.5565 125.914L121.251 79.6757L122.276 80.6659Z" fill="#9B7373"/>
<path d="M128.47 35.3696C130.853 37.6727 130.917 41.4712 128.614 43.8537L107.474 65.722L83.1233 42.1824L104.263 20.314C106.567 17.9315 110.365 17.8672 112.748 20.1703L128.47 35.3696Z" fill="white"/>
<path d="M128.47 35.3696C130.853 37.6727 130.917 41.4712 128.614 43.8537L107.474 65.722L95.3026 53.9561L120.613 27.7739L128.47 35.3696Z" fill="#FFCACA"/>
<path d="M122.567 80.3076C124.949 82.6107 125.014 86.4092 122.711 88.7916L121.721 89.8154L102.147 70.893L107.307 65.5554L122.567 80.3076Z" fill="#9B7373"/>
<rect x="107.469" y="65.7166" width="7.41417" height="0.227209" transform="rotate(134.03 107.469 65.7166)" fill="#FF8E8E"/>
<rect x="5" y="5" width="148" height="148" rx="5" stroke="white" stroke-width="10"/>
</svg>
