<svg width="220" height="235" viewBox="0 0 220 235" fill="none" xmlns="http://www.w3.org/2000/svg">
<path d="M24 218C24 215.791 25.7909 214 28 214H212C214.209 214 216 215.791 216 218V219C216 221.209 214.209 223 212 223H28C25.7909 223 24 221.209 24 219V218Z" fill="#835151"/>
<path d="M85.5293 162.046L26.4542 223.162L2.11267 199.633L61.1878 138.518L85.5293 162.046Z" fill="#FF8E8E"/>
<path d="M85.5186 162.054L26.4435 223.169L14.164 211.3L73.2391 150.184L85.5186 162.054Z" fill="#CD6F6F"/>
<path d="M116 130.54L90.6896 156.722L66.3391 133.182L91.6495 107L116 130.54Z" fill="#FF8E8E"/>
<path d="M116 130.54L90.6896 156.722L78.5184 144.956L103.829 118.774L116 130.54Z" fill="#CD6F6F"/>
<circle r="57.5" transform="matrix(-1 0 0 1 151 67)" stroke="#CD6F6F" stroke-width="15"/>
<mask id="path-8-inside-1" fill="white">
<path d="M105.822 113.734C99.6851 107.801 94.7766 100.717 91.3771 92.8875C87.9775 85.0578 86.1533 76.6351 86.0088 68.1004C85.8643 59.5657 87.4023 51.0861 90.5349 43.1458C93.6675 35.2055 98.3333 27.9599 104.266 21.8228C110.199 15.6857 117.282 10.7772 125.112 7.37759C132.942 3.978 141.364 2.15388 149.899 2.00938C158.434 1.86488 166.913 3.40282 174.854 6.5354C182.794 9.66799 190.04 14.3339 196.177 20.2666L151 67.0001L105.822 113.734Z"/>
</mask>
<path d="M105.822 113.734C99.6851 107.801 94.7766 100.717 91.3771 92.8875C87.9775 85.0578 86.1533 76.6351 86.0088 68.1004C85.8643 59.5657 87.4023 51.0861 90.5349 43.1458C93.6675 35.2055 98.3333 27.9599 104.266 21.8228C110.199 15.6857 117.282 10.7772 125.112 7.37759C132.942 3.978 141.364 2.15388 149.899 2.00938C158.434 1.86488 166.913 3.40282 174.854 6.5354C182.794 9.66799 190.04 14.3339 196.177 20.2666L151 67.0001L105.822 113.734Z" stroke="#FF8E8E" stroke-width="30" mask="url(#path-8-inside-1)"/>
<circle r="50" transform="matrix(-1 0 0 1 151 67)" fill="#E0E0E0"/>
<mask id="path-10-inside-2" fill="white">
<path d="M116.248 102.949C111.527 98.385 107.751 92.9362 105.136 86.9133C102.521 80.8904 101.118 74.4115 101.007 67.8463C100.896 61.2812 102.079 54.7584 104.489 48.6504C106.898 42.5425 110.487 36.969 115.051 32.2481C119.615 27.5272 125.063 23.7515 131.086 21.1364C137.109 18.5214 143.588 17.1182 150.153 17.007C156.718 16.8959 163.241 18.0789 169.349 20.4886C175.457 22.8983 181.031 26.4874 185.752 31.0511L151 66.9999L116.248 102.949Z"/>
</mask>
<path d="M116.248 102.949C111.527 98.385 107.751 92.9362 105.136 86.9133C102.521 80.8904 101.118 74.4115 101.007 67.8463C100.896 61.2812 102.079 54.7584 104.489 48.6504C106.898 42.5425 110.487 36.969 115.051 32.2481C119.615 27.5272 125.063 23.7515 131.086 21.1364C137.109 18.5214 143.588 17.1182 150.153 17.007C156.718 16.8959 163.241 18.0789 169.349 20.4886C175.457 22.8983 181.031 26.4874 185.752 31.0511L151 66.9999L116.248 102.949Z" fill="white" stroke="white" stroke-width="30" mask="url(#path-10-inside-2)"/>
<mask id="path-11-inside-3" fill="white">
<path d="M116.248 102.949C111.527 98.385 107.751 92.9362 105.136 86.9133C102.521 80.8904 101.118 74.4115 101.007 67.8463C100.896 61.2812 102.079 54.7584 104.489 48.6504C106.898 42.5425 110.487 36.969 115.051 32.2481C119.615 27.5272 125.063 23.7515 131.086 21.1364C137.109 18.5214 143.588 17.1182 150.153 17.007C156.718 16.8959 163.241 18.0789 169.349 20.4886C175.457 22.8983 181.031 26.4874 185.752 31.0511L151 66.9999L116.248 102.949Z"/>
</mask>
<path d="M116.248 102.949C111.527 98.385 107.751 92.9362 105.136 86.9133C102.521 80.8904 101.118 74.4115 101.007 67.8463C100.896 61.2812 102.079 54.7584 104.489 48.6504C106.898 42.5425 110.487 36.969 115.051 32.2481C119.615 27.5272 125.063 23.7515 131.086 21.1364C137.109 18.5214 143.588 17.1182 150.153 17.007C156.718 16.8959 163.241 18.0789 169.349 20.4886C175.457 22.8983 181.031 26.4874 185.752 31.0511L151 66.9999L116.248 102.949Z" fill="white" stroke="white" stroke-width="30" mask="url(#path-11-inside-3)"/>
<circle r="47.5" transform="matrix(-1 0 0 1 151 67)" stroke="white" stroke-width="5"/>
</svg>
