<svg width="101" height="100" viewBox="0 0 101 100" fill="none" xmlns="http://www.w3.org/2000/svg">
<rect x="0.542969" width="100.457" height="100.457" rx="10" fill="#FFF0F0"/>
<path d="M65.5947 45.1714L13.6155 98.9461L5.19028 90.8022C1.21931 86.9638 1.11182 80.6331 4.9502 76.6621L49.9794 30.0775L65.5947 45.1714Z" fill="#FF8E8E"/>
<rect x="65.5879" y="45.1758" width="76.408" height="10.8584" transform="rotate(134.027 65.5879 45.1758)" fill="#CD6F6F"/>
<path d="M77.6351 50.6578C79.5096 52.4698 79.5604 55.4584 77.7484 57.333L52.631 83.318C51.725 84.2553 50.2307 84.2807 49.2934 83.3747C48.3561 82.4687 48.3307 80.9744 49.2367 80.0371L77.6351 50.6578Z" fill="#946666"/>
<path d="M80.6539 20.9694C83.0364 23.2726 83.1007 27.071 80.7976 29.4535L68.8754 41.7864L53.3932 26.8198L65.3154 14.4869C67.6186 12.1044 71.417 12.0401 73.7995 14.3433L80.6539 20.9694Z" fill="#FF8E8E"/>
<path d="M80.6539 20.9694C83.0364 23.2726 83.1007 27.071 80.7976 29.4535L68.8754 41.7864L61.1369 34.3056L77.2293 17.6589L80.6539 20.9694Z" fill="#CD6F6F"/>
<path d="M77.8212 50.4303C79.6954 52.2421 79.746 55.2303 77.9342 57.1046L65.4888 45.0737L68.7695 41.68L77.8212 50.4303Z" fill="#946666"/>
<rect x="68.8721" y="41.7832" width="4.71394" height="0.14446" transform="rotate(134.03 68.8721 41.7832)" fill="white"/>
<rect x="5.40625" y="5" width="90.4568" height="90.4568" rx="5" stroke="#FF8E8E" stroke-width="10"/>
</svg>
