<svg width="348" height="235" viewBox="0 0 348 235" fill="none" xmlns="http://www.w3.org/2000/svg">
<path d="M5 127.032H52.8261C56.5941 127.032 59.6487 130.087 59.6487 133.855C59.6487 137.623 56.5941 140.677 52.8261 140.677H18.6452C11.1091 140.677 5 134.568 5 127.032Z" fill="#ACACAC"/>
<rect x="13" y="210" width="320" height="10" rx="5" fill="#946666"/>
<path d="M307 134C307 130.134 310.134 127 314 127H342C342 134.732 335.732 141 328 141H314C310.134 141 307 137.866 307 134Z" fill="#ACACAC"/>
<path d="M152 130L162.75 127L172.403 125.204C173.128 125.069 173.872 125.069 174.597 125.204L184.25 127L195 130" stroke="#ACACAC" stroke-width="10"/>
<path d="M161.115 147.5C161.115 185.883 129.961 217 91.5273 217C53.0938 217 21.9395 185.883 21.9395 147.5C21.9395 109.117 53.0938 78 91.5273 78C129.961 78 161.115 109.117 161.115 147.5Z" stroke="#FF8E8E" stroke-width="2"/>
<circle cx="255.385" cy="147.5" r="66.5" stroke="#FF8E8E" stroke-width="8"/>
<circle cx="91.5" cy="147.5" r="70.5" fill="#D3D3D3" fill-opacity="0.43"/>
<circle cx="255.5" cy="147.5" r="70.5" fill="#D3D3D3" fill-opacity="0.43"/>
<circle cx="255.385" cy="147.5" r="60.5" stroke="#CD6F6F" stroke-width="20"/>
<circle cx="91.4395" cy="147.5" r="60.5" stroke="#FF8E8E" stroke-width="20"/>
<circle cx="91.4395" cy="147.5" r="60.5" stroke="#FF8E8E" stroke-width="20"/>
<mask id="path-13-inside-1" fill="white">
<path d="M41.5884 197.351C28.3671 184.13 20.9395 166.198 20.9395 147.5C20.9395 128.802 28.3671 110.87 41.5884 97.649C54.8097 84.4277 72.7417 77 91.4394 77C110.137 77 128.069 84.4277 141.29 97.649L91.4395 147.5L41.5884 197.351Z"/>
</mask>
<path d="M41.5884 197.351C28.3671 184.13 20.9395 166.198 20.9395 147.5C20.9395 128.802 28.3671 110.87 41.5884 97.649C54.8097 84.4277 72.7417 77 91.4394 77C110.137 77 128.069 84.4277 141.29 97.649L91.4395 147.5L41.5884 197.351Z" stroke="#FFB6B6" stroke-width="40" mask="url(#path-13-inside-1)"/>
<path d="M55.7089 183.127C46.2383 173.656 40.9178 160.811 40.9178 147.418C40.9178 134.025 46.2383 121.18 55.7089 111.709C65.1795 102.238 78.0243 96.918 91.4178 96.918C104.811 96.918 117.656 102.238 127.127 111.709L91.4178 147.418L55.7089 183.127Z" fill="white"/>
<mask id="path-15-inside-2" fill="white">
<path d="M205.588 197.351C192.367 184.13 184.939 166.198 184.939 147.5C184.939 128.802 192.367 110.87 205.588 97.649C218.81 84.4277 236.742 77 255.439 77C274.137 77 292.069 84.4277 305.29 97.649L255.439 147.5L205.588 197.351Z"/>
</mask>
<path d="M205.588 197.351C192.367 184.13 184.939 166.198 184.939 147.5C184.939 128.802 192.367 110.87 205.588 97.649C218.81 84.4277 236.742 77 255.439 77C274.137 77 292.069 84.4277 305.29 97.649L255.439 147.5L205.588 197.351Z" stroke="#FF8E8E" stroke-width="40" mask="url(#path-15-inside-2)"/>
<path d="M219.709 183.127C210.238 173.656 204.918 160.811 204.918 147.418C204.918 134.025 210.238 121.18 219.709 111.709C229.179 102.238 242.024 96.918 255.418 96.918C268.811 96.918 281.656 102.238 291.127 111.709L255.418 147.418L219.709 183.127Z" fill="white"/>
</svg>
