<svg width="27" height="26" viewBox="0 0 27 26" fill="none" xmlns="http://www.w3.org/2000/svg">
<path d="M12.5489 1.92705C12.8483 1.00574 14.1517 1.00574 14.4511 1.92705L16.7555 9.01925C16.8893 9.43128 17.2733 9.71024 17.7065 9.71024H25.1637C26.1324 9.71024 26.5352 10.9499 25.7515 11.5193L19.7185 15.9025C19.368 16.1571 19.2213 16.6085 19.3552 17.0205L21.6596 24.1127C21.959 25.034 20.9045 25.8001 20.1208 25.2307L14.0878 20.8475C13.7373 20.5929 13.2627 20.5929 12.9122 20.8475L6.87923 25.2307C6.09551 25.8001 5.04103 25.034 5.34039 24.1127L7.64478 17.0205C7.77866 16.6085 7.632 16.1571 7.28151 15.9025L1.24852 11.5193C0.464807 10.9499 0.867585 9.71024 1.83631 9.71024H9.29349C9.72672 9.71024 10.1107 9.43128 10.2445 9.01925L12.5489 1.92705Z" fill="#ECDF67"/>
</svg>
