<svg width="137" height="160" viewBox="0 0 137 160" fill="none" xmlns="http://www.w3.org/2000/svg">
<path d="M49.5259 154.284L42.4508 25.3682H123.422L116.347 154.284H49.5259Z" fill="#FF8E8E" stroke="#FF8E8E" stroke-width="10"/>
<path d="M30.2656 29.2985L31.0518 13.9702L7.07488 10.4329L30.2656 29.2985Z" fill="#FFCACA" stroke="#FFCACA"/>
<path d="M132.855 6.50249V13.9701H31.4451L6.28899 10.0398L95.5144 1L132.855 6.50249Z" fill="#FF8E8E" stroke="#FF8E8E"/>
<path d="M127.09 30.0845L127.353 24.582H38.5202L38.7818 30.0845H127.09Z" fill="#EDA9A9"/>
<path d="M30.659 29.2986C71.1836 23.5069 95.475 23.7982 136 29.2986L135.214 14.3633H31.4451L30.659 29.2986Z" fill="#FFB6B6" stroke="#FFB6B6"/>
<ellipse rx="10.2197" ry="10.2189" transform="matrix(-1 0 0 1 44.8096 148.781)" fill="#8C8C8C"/>
<ellipse rx="6.28902" ry="6.28856" transform="matrix(-1 0 0 1 6.28911 10.4328)" fill="#C4C4C4"/>
<path d="M41.244 6.10942H133.249L95.5149 0.606934L41.244 6.10942Z" fill="#EB8D8D"/>
<path d="M63.5338 75.5021H60.8038V73.6121H68.4238V75.5021H65.7238V83.6021H63.5338V75.5021ZM69.8692 73.6121C70.1692 73.6021 70.7292 73.597 71.5492 73.597C72.3792 73.597 72.9442 73.6021 73.2442 73.6121C74.3842 73.6521 75.2342 73.9321 75.7942 74.4521C76.3542 74.9621 76.6342 75.6521 76.6342 76.5221C76.6342 77.2621 76.4442 77.8921 76.0642 78.4121C75.6942 78.9221 75.1742 79.2571 74.5042 79.4171C74.7142 79.5871 74.9292 79.8221 75.1492 80.1221C75.3692 80.4121 75.6742 80.8671 76.0642 81.4871C76.4742 82.1371 76.8892 82.8421 77.3092 83.6021H74.7892L73.0942 80.4521C72.9142 80.1221 72.7492 79.9171 72.5992 79.8371C72.4592 79.7471 72.2442 79.7021 71.9542 79.7021V83.6021H69.8692V73.6121ZM72.8842 78.0371C73.3942 78.0371 73.7942 77.9071 74.0842 77.6471C74.3842 77.3871 74.5342 77.0371 74.5342 76.5971C74.5342 76.1971 74.4042 75.8921 74.1442 75.6821C73.8842 75.4721 73.5042 75.3671 73.0042 75.3671H71.9542V78.0371H72.8842ZM81.0378 73.6121H83.6478L87.3528 83.6021H85.1028L84.2928 81.3221H80.3628L79.5978 83.6021H77.3778L81.0378 73.6121ZM83.6478 79.4621L82.2978 75.6371L80.9928 79.4621H83.6478ZM91.1434 83.7971C90.5634 83.7971 90.0084 83.7321 89.4784 83.6021C88.9584 83.4721 88.5084 83.2971 88.1284 83.0771L88.3084 81.0671C88.7584 81.3471 89.2284 81.5671 89.7184 81.7271C90.2184 81.8771 90.6784 81.9521 91.0984 81.9521C91.5784 81.9521 91.9684 81.8521 92.2684 81.6521C92.5684 81.4521 92.7184 81.1871 92.7184 80.8571C92.7184 80.5871 92.6184 80.3821 92.4184 80.2421C92.2184 80.0921 91.9034 79.9321 91.4734 79.7621L91.1134 79.6121C91.0634 79.5921 91.0084 79.5721 90.9484 79.5521C90.8884 79.5221 90.8184 79.4921 90.7384 79.4621C90.1784 79.2321 89.7284 79.0171 89.3884 78.8171C89.0484 78.6071 88.7534 78.3171 88.5034 77.9471C88.2634 77.5771 88.1434 77.0971 88.1434 76.5071C88.1434 75.5471 88.4684 74.7921 89.1184 74.2421C89.7684 73.6921 90.6734 73.4171 91.8334 73.4171C92.7134 73.4171 93.6134 73.5971 94.5334 73.9571L94.2034 75.9371C93.8334 75.7271 93.4334 75.5621 93.0034 75.4421C92.5834 75.3221 92.1834 75.262 91.8034 75.262C91.3334 75.262 90.9684 75.3571 90.7084 75.5471C90.4484 75.7271 90.3184 75.9721 90.3184 76.2821C90.3184 76.5521 90.4084 76.7621 90.5884 76.9121C90.7684 77.0621 91.0584 77.2221 91.4584 77.3921L92.0734 77.6321C92.6534 77.8521 93.1334 78.0671 93.5134 78.2771C93.8934 78.4871 94.2184 78.7921 94.4884 79.1921C94.7584 79.5821 94.8934 80.0921 94.8934 80.7221C94.8934 81.6921 94.5634 82.4471 93.9034 82.9871C93.2434 83.5271 92.3234 83.7971 91.1434 83.7971ZM96.6187 73.6121H98.8087V77.4821H103.054V73.6121H105.259V83.6021H103.054V79.3421H98.8087V83.6021H96.6187V73.6121Z" fill="white"/>
<path d="M62.1045 157.821L58.1738 98.4727L62.1045 101.224L66.0351 157.821H62.1045Z" fill="#EB8D8D" stroke="#EB8D8D"/>
</svg>
